:SAMPLES-PER-SECOND 30
:FULLY-SPECIFIED
:DEGREES
386
root  -44.7985 39.0567 -14.0238 4.53075 -41.2403 -8.13327
RightUpLeg  -13.191 -41.0446 9.2966
RightLeg  36.964 -3.7013 -3.22198
RightFoot  -14.6608 -0.0752606 1.35212
RightToes  0.00048216 0.542163 -0.142577
Spine  33.6066 1.35207 6.4829
Spine1  12.136 7.07166 -11.7187
HEad  2.62793 -0.407959 -0.678672
LeftShoulder1  10.0799 -17.3758 -41.8886
LeftArm  -0.797419 -28.2685 -33.0297
LeftForeArm  -0.643429 -20.9562 -5.16539
LeftHand  -0.25398 0.0180481 5.50724
RightShoulder  7.53925 15.1785 34.3707
RightArm  -8.60669 45.2862 34.9679
RightForeArm  1.70242 9.00465 9.05616
RightHand  0.369451 3.60687 4.44767
LeftUpLeg  -23.524 29.8387 -13.5195
LeftLeg  13.0672 19.9912 -0.0378883
LeftFoot  -1.99897 -1.82792 22.0781
LeftToes  1.06246e-005 4.65855e-005 -8.185e-006
387
root  -45.684 38.8251 -14.1216 4.26756 -38.5395 -7.13744
RightUpLeg  -18.4428 -41.8896 8.37086
RightLeg  47.2481 -0.916174 -1.31662
RightFoot  -8.20231 -0.269349 6.7327
RightToes  0.00048216 0.542163 -0.142577
Spine  35.3178 0.68278 5.15739
Spine1  11.1101 5.60643 -10.7103
HEad  1.37826 0.386797 -1.15859
LeftShoulder1  10.1617 -17.6571 -41.6481
LeftArm  0.271363 -28.1807 -33.7082
LeftForeArm  0.682096 -20.6884 -5.1866
LeftHand  -0.25398 0.0180481 5.50724
RightShoulder  7.56324 15.2398 34.3669
RightArm  -8.78012 45.4644 33.6284
RightForeArm  3.0111 8.72848 9.12741
RightHand  0.405099 3.61 4.90407
LeftUpLeg  -23.3744 24.7683 -13.233
LeftLeg  14.2903 22.7064 2.14432
LeftFoot  -5.19972 -1.27243 23.6914
LeftToes  1.06246e-005 4.65855e-005 -8.185e-006
388
root  -46.462 38.6219 -14.3307 3.95616 -36.0875 -5.2507
RightUpLeg  -25.5284 -39.5483 6.46809
RightLeg  57.5666 1.58548 2.20623
RightFoot  2.59667 -1.09876 9.40302
RightToes  0.00048216 0.542163 -0.142577
Spine  37.2973 0.351131 3.81986
Spine1  10.3905 4.7396 -10.3595
HEad  -0.202287 0.95427 -2.35151
LeftShoulder1  10.3773 -18.4557 -40.9243
LeftArm  1.32119 -29.7498 -34.597
LeftForeArm  1.87071 -19.3619 -5.59663
LeftHand  -0.25398 0.0180481 5.50724
RightShoulder  7.4045 14.9094 34.232
RightArm  -9.8408 46.0338 31.6163
RightForeArm  3.56271 8.6131 9.08651
RightHand  0.459013 3.65753 5.56467
LeftUpLeg  -27.1432 28.4835 -17.4748
LeftLeg  17.98 14.666 4.94931
LeftFoot  -6.56471 -0.840277 20.9187
LeftToes  1.06246e-005 4.65855e-005 -8.185e-006
389
root  -47.1478 38.5205 -14.648 3.90015 -34.3626 -3.70592
RightUpLeg  -31.9073 -34.3213 4.27145
RightLeg  64.6427 1.67531 3.09282
RightFoot  9.63023 -1.25486 7.14061
RightToes  0.00048216 0.542163 -0.142577
Spine  39.5733 0.262428 3.30146
Spine1  10.6014 4.8127 -10.7676
HEad  -2.10343 1.22113 -4.38184
LeftShoulder1  10.7696 -19.6771 -40.153
LeftArm  0.858973 -33.1787 -35.253
LeftForeArm  4.0487 -16.7109 -6.62856
LeftHand  -0.25398 0.0180481 5.50724
RightShoulder  7.05456 14.3815 33.4722
RightArm  -12.0726 47.0381 29.2066
RightForeArm  4.07934 8.54025 8.83922
RightHand  0.563189 3.84917 6.73226
LeftUpLeg  -29.7676 29.4531 -19.1134
LeftLeg  20.8851 11.7382 5.32896
LeftFoot  -6.52691 -0.795748 19.6567
LeftToes  1.06246e-005 4.65855e-005 -8.185e-006
390
root  -47.7988 38.6343 -15.0172 4.35698 -32.9993 -3.32063
RightUpLeg  -36.1547 -28.6768 2.46921
RightLeg  67.1727 -0.698109 -2.44354
RightFoot  9.78198 -0.312999 1.94123
RightToes  0.00048216 0.542163 -0.142577
Spine  42.2421 0.0468442 3.68162
Spine1  11.5566 5.05749 -10.8625
HEad  -4.44687 1.08676 -6.25967
LeftShoulder1  11.0676 -20.6154 -39.595
LeftArm  -1.75009 -37.5507 -35.7376
LeftForeArm  7.545 -13.6116 -7.73546
LeftHand  -0.25398 0.0180481 5.50724
RightShoulder  6.73536 14.1451 32.2007
RightArm  -15.011 48.775 26.6501
RightForeArm  5.09556 7.92002 8.54321
RightHand  0.699469 4.30479 7.9966
LeftUpLeg  -30.5504 29.9591 -18.9768
LeftLeg  20.9402 10.3266 4.66591
LeftFoot  -5.84324 -0.934965 19.9867
LeftToes  1.06246e-005 4.65855e-005 -8.185e-006
391
root  -48.4707 38.8876 -15.3858 5.31445 -31.195 -3.39563
RightUpLeg  -38.429 -24.5896 0.881474
RightLeg  64.6896 -4.28535 -10.2995
RightFoot  7.02973 0.494974 -2.74341
RightToes  0.00048216 0.542163 -0.142577
Spine  44.7882 -0.45547 4.10561
Spine1  12.4907 4.68555 -10.2241
HEad  -6.97556 0.737394 -7.25532
LeftShoulder1  11.1055 -20.9845 -39.0781
LeftArm  -4.48119 -41.8154 -36.1822
LeftForeArm  10.4195 -11.204 -8.27741
LeftHand  -0.25398 0.0180481 5.50724
RightShoulder  6.67305 14.4366 31.2219
RightArm  -17.9867 51.0153 23.606
RightForeArm  5.48621 6.74802 8.34804
RightHand  0.785311 4.90267 8.45124
LeftUpLeg  -30.3644 29.1384 -17.9084
LeftLeg  19.2046 9.07917 3.6117
LeftFoot  -4.63713 -1.10198 19.1403
LeftToes  1.06246e-005 4.65855e-005 -8.185e-006
